<svg xmlns="http://www.w3.org/2000/svg" width="61.68" height="50.8" viewBox="0 0 61.68 50.8"><defs><style>.a{fill:none;stroke:#fff;stroke-linecap:round;stroke-linejoin:round;stroke-miterlimit:10;stroke-width:6px;}</style></defs><g transform="translate(59 3) rotate(90)"><path class="a" d="M17.6,0H39.68A5.12,5.12,0,0,1,44.8,5.12V50.56a5.12,5.12,0,0,1-5.12,5.12H5.12A5.12,5.12,0,0,1,0,50.56V5.12A5.12,5.12,0,0,1,5.12,0" transform="translate(0 0.32)"/><path class="a" d="M19.84,0a5.12,5.12,0,0,1,5.12,5.12V50.56a5.12,5.12,0,0,1-5.12,5.12H5.12A5.12,5.12,0,0,1,0,50.56V5.12A5.12,5.12,0,0,1,5.12,0h0" transform="translate(0 0.32)"/><path class="a" d="M-1.68.193V.447" transform="translate(16.743 27.84)"/></g></svg>