<svg xmlns="http://www.w3.org/2000/svg" width="55.014" height="58" viewBox="0 0 55.014 58"><defs><style>.a,.b,.c,.f{fill:none;}.b,.c{stroke:#fff;stroke-width:6px;}.c{stroke-linecap:round;stroke-linejoin:round;}.d,.e{stroke:none;}.e{fill:#fff;}</style></defs><g transform="translate(10.667 -677.378)"><g class="a" transform="translate(-10.667 713.888)"><path class="d" d="M10.745,0A10.745,10.745,0,1,1,0,10.745,10.745,10.745,0,0,1,10.745,0Z"/><path class="e" d="M 10.74515533447266 5.999995231628418 C 8.128664970397949 5.999995231628418 5.999995231628418 8.128664970397949 5.999995231628418 10.74515533447266 C 5.999995231628418 13.36163520812988 8.128664970397949 15.49030494689941 10.74515533447266 15.49030494689941 C 13.36163520812988 15.49030494689941 15.49030494689941 13.36163520812988 15.49030494689941 10.74515533447266 C 15.49030494689941 8.128664970397949 13.36163520812988 5.999995231628418 10.74515533447266 5.999995231628418 M 10.74515533447266 -3.814697265625e-06 C 16.67953491210938 -3.814697265625e-06 21.49030494689941 4.810766220092773 21.49030494689941 10.74515533447266 C 21.49030494689941 16.67953491210938 16.67953491210938 21.49030494689941 10.74515533447266 21.49030494689941 C 4.810766220092773 21.49030494689941 -3.814697265625e-06 16.67953491210938 -3.814697265625e-06 10.74515533447266 C -3.814697265625e-06 4.810766220092773 4.810766220092773 -3.814697265625e-06 10.74515533447266 -3.814697265625e-06 Z"/></g><g class="b" transform="translate(22.843 707.078)"><circle class="d" cx="10.745" cy="10.745" r="10.745"/><circle class="f" cx="10.745" cy="10.745" r="7.745"/></g><path class="c" d="M518-103.113v-36.265l33.914-5.373v37.608" transform="translate(-510.567 825.128)"/></g></svg>