<svg xmlns="http://www.w3.org/2000/svg" width="61.68" height="60.644" viewBox="0 0 61.68 60.644"><defs><style>.a{fill:none;stroke:#fff;stroke-linecap:round;stroke-linejoin:round;stroke-miterlimit:10;stroke-width:6px;}</style></defs><g transform="translate(3 2.604)"><path class="a" d="M55.68,25.362V33.92a7.04,7.04,0,0,1-7.04,7.04H7.04A7.04,7.04,0,0,1,0,33.92V7.04A7.04,7.04,0,0,1,7.04,0h41.6a7.04,7.04,0,0,1,7.04,7.04V11.3" transform="translate(0 14.08)"/><path class="a" d="M0,18.6a7.04,7.04,0,0,1,4.649-6.622L36.649.42A7.04,7.04,0,0,1,46.08,7.042v6.15" transform="translate(0 0.425)"/></g></svg>