<svg xmlns="http://www.w3.org/2000/svg" width="1921.89" height="437.166" viewBox="0 0 1921.89 437.166"><defs><style>.a{opacity:0.8;}.b,.d,.g,.i,.k,.l{fill:none;}.b,.d,.e,.i,.j,.k,.l,.m{stroke:#f05353;stroke-miterlimit:10;}.c,.n{opacity:0.7;}.d,.e{stroke-width:0.1px;}.e,.h,.j,.n{fill:#f05353;}.f{opacity:0.6;}.i{stroke-width:1.08px;}.j,.k,.m{stroke-linecap:round;}.j,.k{stroke-linejoin:round;}.j{stroke-width:0.798px;}.l{stroke-width:1.012px;}</style></defs><g class="a" transform="translate(-11.727 -339.634)"><path class="b" d="M1493.3,540.7c-.6,7.6.3,15.8,5.2,21.8,12,15,25-5,25-5"/><path class="b" d="M1493.3,540.7"/><path class="b" d="M1498.5,519.5a75.47,75.47,0,0,0-4.4,15.3"/><path class="b" d="M575.5,644.6c-21.2,10.7-43,21.5-64.1,32.9-21.8,11.8-42.6,25.6-64.9,36.4-26,12.6-53.4,23.3-81.9,28.7-27,5.1-56.5,5.4-81.6-7.2-21.9-10.9-37.1-30.7-46.4-52.9,0,0-76.316-213.655-224.316-139.655"/><path class="b" d="M740.9,676.6s-24.3-25.3-61.6-38.8"/><path class="b" d="M1444,461.5c4-2,12,1,11.5,1.5,28-7,30,14,39,18,6.3,2.7,12.1,6.8,15.8,12.7a22.065,22.065,0,0,1,3.3,9.5c.3,4.6-.9,9.3-.3,13.9.6,4.5,3,8.9,5.7,12.5,5.5,7.6,14.6,10,23.6,8.8"/><path class="b" d="M1503.3,510.4"/><path class="b" d="M1491.5,499"/><path class="b" d="M1491.5,499"/><path class="b" d="M1505.5,506.7"/><path class="b" d="M1505.5,507.5"/><path class="b" d="M1505.5,508"/><path class="b" d="M1420.5,698s117,27,91-70c-8-29-47-24-34-76,7-17,23-3,27-44"/><path class="b" d="M1471.5,540s-9,12-16,12c-5.6,0-31.5-1.3-41.8-1.8a7.054,7.054,0,0,1-6.5-5.2,4.994,4.994,0,0,1,.3-4c2-3,1-9,1-9s4,3,8,2"/><path class="b" d="M1410.5,568a12.6,12.6,0,0,0-3.2,9.8c1.5,10.5,16.9,15.3,25.4,17.2,14.3,3.3,32.6-2.8,43.2-12.9,2.5-2.3,7.8-11.9.6-12"/><path class="b" d="M1418.3,495.6c6.5,4.6,1.2,11.3-4.5,13.4-3.1,1.1-4.2,3.9-4.3,7.1l8,1.5"/><path class="b" d="M1427,530.5s-6.5,2.5-9.5.5-2-3-6-2-3.5-3.5-3.5-3.5"/><path class="b" d="M1449.5,506a15.154,15.154,0,0,1-3.2-3.5c-.8-1.2-1.4-2.7-2.7-3.5a10.179,10.179,0,0,0-4.5-1,46.947,46.947,0,0,0-7.5,0"/><path class="b" d="M1442.5,506s-3-6-8-3S1442.5,506,1442.5,506Z"/><path class="b" d="M1473.5,535s9,8,17-6-8-27-13-5"/><path class="b" d="M1478.5,491s-7.2,14.6,1.9,25.3c.1.7,3.1-3.3,3.7-3.6,1.4.3-.6-6.7-.6-6.7"/><path class="b" d="M1480.5,500s-4.3,8.8-2.1,13.4"/><path class="b" d="M1414,579.5s27-24.8-4.5-30.9"/><path class="b" d="M1467.5,603a58.587,58.587,0,0,1-24,5c-4.9,0-9.8-.1-14.6-.2-7.5-.1-14.9-.2-22.4-.2-8,0-16,0-23.9.2-6.4.2-12.8.4-19.2,1.1-4,.5-7.1,1.3-10.1,4.2-1.7,1.6-3.4,3.2-5,4.8-3.2,3.3-6.2,7.3-6.8,12"/><path class="b" d="M1516,691.5s-14,39-114,10c-53-10-134.5,36-241.5-45,0,0-89-64-147-52s-82-19-78-46,34-41,59-29,86,11,95-4"/><path class="b" d="M1327.5,655s-130-101-88-123"/><path class="b" d="M1320.5,691s20-17,5-48c-9-17,15-39,26-40s-7,23-24,0-36-37-44-35c0,0-1-16-22-7"/><path class="b" d="M1244.8,575.2s.7-26.2,22.7-23.2c15,4,11,21,4,23"/><path class="b" d="M1250.5,552s8-3,17-20,15-19,12-36-10-38-10-38-4-1-4,5,9,32,3,35"/><path class="b" d="M1232,481.5s20,1,16,13c-.6.9-1.1-1.6-1.1-1.8-.5-2.3-.7-4.7-1-7-.7-6.5-.9-12.9-2.8-19.3-.4-1.3-.5-2.6,1.2-2.9,2.6-.4,4.4,2.8,5.3,4.7,2.4,5,3,10.9,3.4,16.3,0,0-5-27-2-28s9,15,10,21-9-24-3-25c5.4-.9,7,8.5,7.4,12.2"/><path class="b" d="M1438,465.5c14-3,10,19,38,17s28,14,28,14-1.5,55,38.5,52,155-102,180,108,210.732-13.177,210.732-13.177"/><path class="b" d="M1473.5,482.6s-10-7.6-11-12.6-7-7-7-7"/><path class="b" d="M1462.5,481s-8.2-18.6-18.1-14.8"/><path class="b" d="M1475.5,472s-4-4-13-2"/><path class="b" d="M1429,481.3"/><path class="b" d="M1429,480.5s1-12,8-9c3,2,1,14,10,9"/><path class="b" d="M1429.5,467s7.5-6.5,16.5,12.5c0,0-19-10-30,22"/><path class="b" d="M1405,577.5s-6,21,34,24"/><path class="b" d="M1481.5,529s-2,2-4-1"/><path class="b" d="M1382.5,641s-13,54,102,35a35.934,35.934,0,0,0,14.5-5.4,15.855,15.855,0,0,0,6.3-8.7c.6-2.3.2-6-2.4-7-5.4-2-11.7,3.1-13.5,7.9-2.3,6.1-.6,13.1,1.2,19.1,9,31,68,49,98,35s64-37,88-62,35.165-57.838,113.165-18.838c0,0,53.994,47.884,142.994-28.116"/><path class="b" d="M450.5,593.1A360.7,360.7,0,0,1,404,614.3c-31.7,11.6-69.1,28.1-100.9,8.8-9.5-5.8-18.1-13.1-27.7-18.9-51.5-31.3-117.1-8.1-165.9,17.4-134,70-73.2,26.512-97.6,35.349"/><path class="b" d="M450.5,603.1"/><path class="b" d="M769.4,568.1c-15.3-14.9-31.4-28.9-49.2-40.9-27.1-18.2-57.7-30.2-90.6-30.8-43.2-.8-77.1,26-109.7,51-7.8,6-15.7,11.8-23.8,17.4"/><path class="b" d="M769.4,578.1"/><path class="b" d="M1118,698c-83,19-182.5,20.7-252.4-35.3-32.3-25.9-59.4-57.8-88.6-87.2"/><path class="b" d="M1732.5,753.5c-34,25-130.1,12.8-186,3-57-10-167,38-216,12-31.8-16.9-120.2-16.1-178.2-13.4a145.154,145.154,0,0,1-94.6-29.5c-21.2-16.1-43.1-31.4-65.5-45.9-52.4-33.9-118.4-74.7-183.5-75.3"/><path class="b" d="M601.1,705"/><g class="c"><path class="d" d="M498.7,539.7a28.7,28.7,0,0,0-57.4,0,28.405,28.405,0,0,0,10.2,21.9,10.9,10.9,0,0,0-.3,2.6v13.1a10.072,10.072,0,0,0,10.1,10.1h17.5a10.072,10.072,0,0,0,10.1-10.1V564.2a11.53,11.53,0,0,0-.3-2.6A28.645,28.645,0,0,0,498.7,539.7Z"/><path class="e" d="M478.8,587.9H461.3a10.712,10.712,0,0,1-10.7-10.7V564.1a9.864,9.864,0,0,1,.3-2.4,29.3,29.3,0,1,1,38.4,0,9.862,9.862,0,0,1,.3,2.4v13.1A10.863,10.863,0,0,1,478.8,587.9ZM470,511.6a28.125,28.125,0,0,0-28.1,28.1,27.638,27.638,0,0,0,10,21.4c.2.1.2.4.2.6a9.862,9.862,0,0,0-.3,2.4v13.1a9.5,9.5,0,0,0,9.5,9.5h17.5a9.5,9.5,0,0,0,9.5-9.5V564.1a9.864,9.864,0,0,0-.3-2.4.481.481,0,0,1,.2-.6A28.036,28.036,0,0,0,470,511.6Z"/></g><g class="f"><rect class="g" width="27.6" height="4.7" transform="translate(456.2 593.7)"/><path class="h" d="M483.8,599H456.2a.645.645,0,0,1-.6-.6v-4.7a.645.645,0,0,1,.6-.6h27.6a.645.645,0,0,1,.6.6v4.7A.576.576,0,0,1,483.8,599Zm-27-1.2h26.4v-3.5H456.8Z"/></g><g class="f"><rect class="g" width="20.1" height="4.7" transform="translate(460 603.7)"/><path class="h" d="M480.1,609H460a.645.645,0,0,1-.6-.6v-4.7a.645.645,0,0,1,.6-.6h20.1a.645.645,0,0,1,.6.6v4.7A.645.645,0,0,1,480.1,609Zm-19.5-1.2h18.9v-3.5H460.6Z"/></g><g class="c"><path class="h" d="M467,587.9a.675.675,0,0,1-.6-.4l-9.8-39.4a.749.749,0,0,1,.1-.5.764.764,0,0,1,.5-.2H467a.645.645,0,0,1,.6.6v7a.6.6,0,0,1-1.2,0v-6.4H458l9.6,38.7a.569.569,0,0,1-.4.7C467.1,587.9,467.1,587.9,467,587.9Z"/></g><g class="c"><path class="h" d="M473,587.9h-.1a.569.569,0,0,1-.4-.7l9.6-38.7h-8.4v6.4a.6.6,0,0,1-1.2,0v-7a.645.645,0,0,1,.6-.6h9.8a.764.764,0,0,1,.5.2.44.44,0,0,1,.1.5l-9.8,39.4A.64.64,0,0,1,473,587.9Z"/></g><path class="b" d="M1103.5,506.5c6.1,10.7,20.2,13.6,31.5,14.7a110.831,110.831,0,0,0,45.8-4.8c12.7-4.1,28.2-5.7,39.7,2.2"/><path class="b" d="M670,661H584a4.951,4.951,0,0,1-5-5V587a4.951,4.951,0,0,1,5-5h86a4.951,4.951,0,0,1,5,5v69A4.951,4.951,0,0,1,670,661Z"/><circle class="i" cx="27" cy="27" r="27" transform="translate(599.5 594.5)"/><path class="j" d="M866.5,474.5"/><path class="k" d="M888.5,471.5s-56-65-142-53-96,25-142,17"/><path class="b" d="M617.6,607.3V637L643,622Z"/><path class="b" d="M800.7,531.7l1.5-2.9,7.5,3.9a11.252,11.252,0,0,0-4.8-15.1l-7.2-3.8a11.271,11.271,0,0,0-15.2,4.7l7.5,3.9-1.5,2.9-7.5-3.9-1.8,3.5,7.5,3.9-1.5,2.9-7.5-3.9-1.8,3.5,7.5,3.9-1.5,2.9-7.5-3.9-1.8,3.5,7.5,3.9-1.5,2.9-7.5-3.9a11.252,11.252,0,0,0,4.8,15.1l7.2,3.8a11.271,11.271,0,0,0,15.2-4.7l-7.5-3.9,1.5-2.9,7.5,3.9,1.8-3.5-7.5-3.9,1.5-2.9,7.5,3.9,1.8-3.5-7.5-3.9,1.5-2.9,7.5,3.9,1.8-3.5Z"/><path class="b" d="M804.1,554.6l-3.1,5.7a12.525,12.525,0,0,1-16.9,5.2L770,558a12.525,12.525,0,0,1-5.2-16.9"/><line class="b" y1="5.7" x2="3.1" transform="translate(764.8 535.3)"/><path class="l" d="M755.7,596.4l19.1-35.9,4.4,2.4-19.1,35.9"/><path class="b" d="M766.2,602.4l-15.9-8.5a5.966,5.966,0,0,0-8.1,2.5h0l26.5,14.1h0A6.026,6.026,0,0,0,766.2,602.4Z"/><line class="m" x1="7.1" y2="13.3" transform="translate(753.4 578.9)"/><line class="m" x1="7.1" y2="13.3" transform="translate(768.4 578.4)"/><path class="b" d="M569.5,430.4l-18.4,6.5a5.79,5.79,0,0,1-7.4-3.5l-21.9-61.8a15.456,15.456,0,0,1,9.5-19.8h0a15.456,15.456,0,0,1,19.8,9.5L573,423A5.79,5.79,0,0,1,569.5,430.4Z"/><rect class="b" width="65.4" height="18.3" transform="translate(509.438 385.726) rotate(-19.493)"/><path class="b" d="M514.3,411.9l-25.2,8.9a3.713,3.713,0,0,1-4.8-2.3l-9.7-27.4a3.713,3.713,0,0,1,2.3-4.8l25.2-8.9a3.713,3.713,0,0,1,4.8,2.3l9.7,27.4A3.751,3.751,0,0,1,514.3,411.9Z"/><line class="b" x2="16.4" y2="46.3" transform="translate(478 378.6)"/><line class="b" x2="16.4" y2="46.2" transform="translate(496.2 372.6)"/><line class="b" y1="6.4" x2="18.1" transform="translate(486.5 395)"/><path class="b" d="M609,379.2l-25.2,8.9a3.713,3.713,0,0,1-4.8-2.3l-9.7-27.4a3.713,3.713,0,0,1,2.3-4.8l25.2-8.9a3.713,3.713,0,0,1,4.8,2.3l9.7,27.4A3.751,3.751,0,0,1,609,379.2Z"/><line class="b" x2="16.4" y2="46.2" transform="translate(573 345.9)"/><line class="b" x2="16.3" y2="46.3" transform="translate(591.2 339.8)"/><line class="b" y1="6.3" x2="18" transform="translate(581.5 362.3)"/><line class="b" y1="9.3" x2="26.3" transform="translate(549.3 435)"/><path class="b" d="M555.4,448.1l18-6.4-6,12.7Z"/><circle class="b" cx="4.8" cy="4.8" r="4.8" transform="translate(564.8 459.4)"/><path class="n" d="M1022.3,451.2c-.1.1,0,.3.1.4l.3.3c2.5,4.3,4.9,8.7,7.2,13.1a251.956,251.956,0,0,1,19.4,51.3.446.446,0,0,0,.6.3c0,.3.3.6.6.4,2.5-1.6,4.7-3.8,7-5.6,2.3-1.7,4.6-3.4,6.9-5l2.1-1.5a.367.367,0,0,0,.1.3c1.4,2.1,3.7,3.9,5.5,5.5,1,.9,2,1.7,3,2.5a11.543,11.543,0,0,0,2.9,2,.308.308,0,0,0,.4-.4h0a207.136,207.136,0,0,0,5.4-23c.2,0,.3-.2.3-.4,6.9-3.2,13.1-8.2,18.5-13.5a.471.471,0,0,0,.1-.6.4.4,0,0,0-.2-.6c-5.8-2.2-11.8-3.9-17.7-5.9-20.6-6.8-41.3-13.5-61.9-20.2h-.1a.1.1,0,0,1-.1-.1C1022.5,450.2,1022,450.8,1022.3,451.2Zm61.4,39.4c-4.2-3.1-8.6-5.8-13-8.6-15-9.9-30.1-19.8-45.1-29.7,4.8,1.6,9.7,3.2,14.6,4.8l30.9,10.1c5.2,1.7,10.5,3.4,15.7,5.1,5.1,1.7,10.1,3.5,15.2,4.9a76.635,76.635,0,0,1-8.8,7.4c-3,2.2-6.1,4-9.3,5.9C1083.9,490.6,1083.8,490.6,1083.7,490.6Zm-5.2,21.1c-.3-5.2-.5-10.4-1-15.5a.425.425,0,0,0-.6-.4.675.675,0,0,0-.6-.4.349.349,0,0,1-.2-.1,13.728,13.728,0,0,0-2.2-2c-1-.9-2.1-1.7-3.1-2.6-1.9-1.6-3.9-3.2-5.8-4.8-7-5.9-14.1-11.7-21.1-17.6-3.5-2.9-7-5.9-10.6-8.8-1.8-1.5-3.5-3-5.2-4.5l8,5.2c8,5.2,15.9,10.5,23.9,15.7,4,2.6,8,5.2,12,7.9,3.8,2.5,7.6,5.2,11.6,7.5C1081.9,498.2,1080.3,505,1078.5,511.7Zm-11.4-7.1c1.5-1,2.9-2.1,4.3-3.2,1.1-.9,2.2-1.8,3.2-2.7a7.608,7.608,0,0,0,2-2c0,5.6.6,11.3,1,16.9l-2.1-1.5c-.9-.7-1.9-1.5-2.8-2.3s-1.8-1.6-2.7-2.5a23.955,23.955,0,0,0-2.8-2.7Zm-42-50.6c3,2.6,6.3,5.1,9.3,7.6,7,5.8,14,11.6,20.9,17.4,3.5,2.9,6.9,5.7,10.4,8.6l5.4,4.5c1.5,1.3,3.1,3,5,3.8h0c.1.1.1.1.2.1-1,.3-1.8,1.4-2.6,2.1-1,.9-2,1.7-3,2.5-2.3,1.8-4.8,3.5-7.3,5.2-2.3,1.6-4.7,3.3-6.9,5.1a61.074,61.074,0,0,0-6.3,5.1h0c-1.3-5.1-2.7-10.1-4.3-15A246.339,246.339,0,0,0,1025.1,454Z"/><path class="b" d="M467.5,413.5s-56-66-137-27-171-4-171-4S96.75,332.551,12.75,347.551"/><path class="b" d="M1444.5,462.5s-6,2-18-4"/><path class="b" d="M1502.5,524.7s-11,24.8,11,27.8"/><path class="h" d="M1438,503a4.818,4.818,0,0,0-1.2,0,4.22,4.22,0,0,0-1.2.3c-.3.2-.7.5-.4.9l.3.3a1.929,1.929,0,0,0,1,.3,6.6,6.6,0,0,0,1.4.1,2.233,2.233,0,0,0,1.3-.6.52.52,0,0,0,.2-.4.764.764,0,0,0-.2-.5A5.644,5.644,0,0,0,1438,503Z"/><path class="b" d="M1504,496s13,26,67,12,71-23,89-8"/><path class="k" d="M1028,512s-61,19-99-32c-19.1-25.6-45.1-46.6-72.9-62.1a194.617,194.617,0,0,0-40.9-17.5c-29.1-8.2-59.4,2.5-88,7.9-37.9,7.1-75.8,15-114.5,14.6-8-.1-16.2-1.3-23-5.5"/><path class="b" d="M869.5,741.5s-149-54-304-12C504.6,746,446.8,747.8,399,744"/></g></svg>