<svg xmlns="http://www.w3.org/2000/svg" width="20.153" height="20.149" viewBox="0 0 20.153 20.149"><defs><style>.a{fill:#707070;}</style></defs><path class="a" d="M10,36.734A5.166,5.166,0,1,0,15.17,41.9,5.158,5.158,0,0,0,10,36.734Zm0,8.524A3.359,3.359,0,1,1,13.362,41.9,3.365,3.365,0,0,1,10,45.258Zm6.582-8.736a1.2,1.2,0,1,1-1.2-1.2A1.2,1.2,0,0,1,16.586,36.522Zm3.421,1.223a5.963,5.963,0,0,0-1.628-4.222A6,6,0,0,0,14.158,31.9c-1.664-.094-6.65-.094-8.313,0a5.993,5.993,0,0,0-4.222,1.623A5.982,5.982,0,0,0,0,37.741C-.1,39.4-.1,44.39,0,46.054a5.963,5.963,0,0,0,1.628,4.222A6.01,6.01,0,0,0,5.845,51.9c1.664.094,6.65.094,8.313,0a5.963,5.963,0,0,0,4.222-1.628,6,6,0,0,0,1.628-4.222C20.1,44.39,20.1,39.409,20.008,37.745ZM17.858,47.839a3.4,3.4,0,0,1-1.915,1.915c-1.326.526-4.474.4-5.939.4s-4.617.117-5.939-.4a3.4,3.4,0,0,1-1.915-1.915c-.526-1.326-.4-4.474-.4-5.939s-.117-4.617.4-5.939a3.4,3.4,0,0,1,1.915-1.915c1.326-.526,4.474-.4,5.939-.4s4.617-.117,5.939.4a3.4,3.4,0,0,1,1.915,1.915c.526,1.326.4,4.474.4,5.939S18.384,46.517,17.858,47.839Z" transform="translate(0.075 -31.825)"/></svg>