<svg xmlns="http://www.w3.org/2000/svg" width="25.245" height="20.504" viewBox="0 0 25.245 20.504"><defs><style>.a{fill:#707070;}</style></defs><path class="a" d="M22.65,53.192c.016.224.016.449.016.673A14.62,14.62,0,0,1,7.945,68.586,14.621,14.621,0,0,1,0,66.263a10.7,10.7,0,0,0,1.249.064,10.362,10.362,0,0,0,6.424-2.211,5.183,5.183,0,0,1-4.838-3.588,6.525,6.525,0,0,0,.977.08,5.472,5.472,0,0,0,1.362-.176,5.175,5.175,0,0,1-4.149-5.078V55.29a5.211,5.211,0,0,0,2.339.657,5.182,5.182,0,0,1-1.6-6.92A14.707,14.707,0,0,0,12.43,54.441a5.841,5.841,0,0,1-.128-1.185,5.179,5.179,0,0,1,8.954-3.54,10.187,10.187,0,0,0,3.284-1.249,5.16,5.16,0,0,1-2.275,2.851,10.372,10.372,0,0,0,2.979-.8A11.122,11.122,0,0,1,22.65,53.192Z" transform="translate(0 -48.082)"/></svg>