<svg xmlns="http://www.w3.org/2000/svg" width="28.169" height="20.4" viewBox="0 0 28.169 20.4"><defs><style>.a{fill:none;stroke:#707070;stroke-linecap:round;stroke-linejoin:round;stroke-width:2px;}</style></defs><path class="a" d="M40.555,66.879a3.288,3.288,0,0,0-2.314-2.329C36.2,64,28.017,64,28.017,64s-8.183,0-10.224.55a3.288,3.288,0,0,0-2.314,2.329,37.022,37.022,0,0,0,0,12.679,3.239,3.239,0,0,0,2.314,2.291c2.041.55,10.224.55,10.224.55s8.183,0,10.224-.55a3.239,3.239,0,0,0,2.314-2.291,37.022,37.022,0,0,0,0-12.679ZM25.341,77.109V69.328l6.84,3.891-6.84,3.891Z" transform="translate(-13.933 -63)"/></svg>